<?xml version="1.0" standalone="no"?>
<!DOCTYPE svg PUBLIC "-//W3C//DTD SVG 20010904//EN"
 "http://www.w3.org/TR/2001/REC-SVG-20010904/DTD/svg10.dtd">
<svg version="1.0" xmlns="http://www.w3.org/2000/svg"
 width="1024.000000pt" height="350.000000pt" viewBox="0 0 1024.000000 350.000000"
 preserveAspectRatio="xMidYMid meet">

<g transform="translate(0.000000,350.000000) scale(0.100000,-0.100000)"
fill="#000000" stroke="none">
<path d="M0 1750 l0 -1750 5120 0 5120 0 0 1750 0 1750 -5120 0 -5120 0 0
-1750z m2364 1384 c227 -55 378 -232 441 -518 31 -140 9 -251 -76 -382 -39
-59 -55 -76 -79 -80 -27 -6 -30 -10 -30 -43 0 -20 -9 -49 -20 -66 -53 -82 -79
-111 -112 -127 -32 -15 -38 -25 -57 -85 -15 -50 -28 -75 -49 -90 -17 -12 -32
-35 -35 -52 -9 -43 -82 -113 -134 -129 -23 -7 -55 -26 -72 -42 -37 -38 -78
-39 -154 -6 -53 24 -57 24 -123 10 -77 -16 -274 -30 -297 -21 -13 5 -13 15 3
84 11 43 25 97 32 121 12 41 11 43 -19 74 l-31 31 -44 -35 c-23 -19 -67 -49
-96 -67 -35 -23 -54 -42 -58 -60 -19 -88 -65 -196 -122 -285 l-25 -40 27 -52
c73 -140 232 -214 364 -170 53 18 142 91 142 117 0 9 -16 23 -36 32 -88 42
-69 143 38 198 45 23 79 24 117 4 39 -20 59 -67 73 -177 11 -89 10 -99 -11
-164 -35 -111 -58 -143 -141 -199 -64 -43 -90 -54 -175 -73 -177 -39 -340 -25
-480 41 -70 34 -228 146 -243 172 -6 12 -14 12 -52 -2 -74 -28 -320 -24 -490
7 l-135 25 125 7 c140 7 274 37 382 87 38 16 68 32 68 35 0 18 -71 211 -77
209 -5 -1 -28 -10 -53 -20 -62 -23 -244 -24 -320 0 -77 23 -300 161 -285 176
3 2 10 -1 17 -6 7 -6 57 -25 111 -43 159 -52 280 -48 449 18 l73 27 7 85 c12
154 48 317 103 463 25 67 25 70 9 122 -23 82 -4 244 35 289 12 14 17 49 21
155 5 128 7 142 35 197 40 78 79 104 157 104 55 0 60 2 92 38 43 47 116 88
185 103 59 12 197 0 308 -28 l64 -16 74 32 c62 26 88 31 152 31 43 0 96 -5
117 -11 27 -7 45 -8 60 0 12 5 30 12 41 15 31 7 143 -4 209 -20z m4232 -73
c-3 -4 -40 -11 -82 -14 -257 -22 -477 -182 -556 -405 -28 -81 -36 -247 -15
-329 50 -192 162 -296 468 -434 370 -167 430 -203 470 -280 34 -67 22 -159
-29 -228 -62 -83 -180 -122 -364 -119 l-113 1 140 8 c184 9 248 31 317 107 44
49 62 100 56 163 -10 105 -73 155 -341 274 -195 86 -339 159 -408 206 -139 94
-219 251 -219 429 0 342 227 575 602 619 40 5 74 9 76 10 2 0 1 -3 -2 -8z
m209 -1 c134 -16 210 -37 313 -87 191 -93 321 -279 347 -495 l6 -58 -73 -1
c-40 -1 -135 -4 -211 -8 l-138 -6 -5 25 c-17 75 -26 99 -53 141 -62 99 -157
139 -330 139 -68 0 -127 -6 -159 -15 -123 -37 -192 -163 -149 -268 24 -56 93
-106 246 -179 80 -39 214 -103 298 -143 240 -116 322 -182 383 -309 137 -287
-12 -659 -325 -811 -133 -66 -222 -86 -403 -92 -297 -11 -522 49 -684 181
-105 85 -183 242 -193 390 l-4 61 9 -60 c46 -287 201 -450 506 -532 92 -25
114 -27 304 -27 183 -1 214 2 288 22 157 43 256 99 357 201 112 114 172 242
182 391 7 108 -8 187 -51 275 -72 146 -167 212 -543 381 -276 123 -349 171
-379 250 -39 102 6 206 111 259 59 29 63 30 210 30 141 0 153 -2 206 -26 95
-45 159 -128 175 -230 l7 -42 201 7 c110 4 202 9 204 11 2 2 -3 41 -12 87 -25
125 -82 235 -170 323 -137 138 -278 191 -571 214 -70 6 -83 9 -45 10 30 0 96
-4 145 -9z m-1932 -187 c-18 -87 -35 -168 -38 -180 l-5 -23 -518 0 -518 0 -48
-227 c-26 -126 -49 -236 -52 -245 -5 -17 23 -18 500 -18 475 0 506 -1 506 -17
0 -10 -15 -90 -33 -178 l-33 -160 -510 -5 -509 -5 -87 -415 c-48 -228 -89
-430 -93 -447 l-6 -33 -219 0 c-143 0 -220 4 -220 10 0 6 72 353 160 773 87
419 184 884 215 1032 31 149 58 276 60 283 4 9 161 12 743 12 l739 0 -34 -157z
m655 -405 c-64 -310 -163 -785 -219 -1055 l-103 -493 -223 0 c-173 0 -221 3
-218 13 2 6 49 228 104 492 55 264 148 707 206 985 59 278 111 531 117 563
l12 57 221 0 221 0 -118 -562z m3569 425 c12 -76 72 -444 133 -818 99 -615
117 -732 105 -700 -4 8 -114 688 -247 1513 l-21 132 -237 0 -236 0 -587 -1038
c-323 -571 -587 -1041 -587 -1045 0 -4 96 -6 213 -5 l212 3 125 230 126 230
420 3 420 2 35 -232 34 -233 198 -3 c191 -2 197 -2 197 17 0 11 -14 104 -31
206 -16 103 -29 191 -27 197 3 7 19 -80 37 -193 18 -112 34 -212 37 -221 5
-17 -9 -18 -205 -18 -210 0 -211 0 -216 22 -3 13 -19 115 -36 228 -17 112 -33
208 -35 212 -3 4 -188 8 -412 8 l-407 0 -126 -233 -126 -232 -227 -3 c-158 -2
-227 1 -224 8 2 6 269 481 593 1055 l590 1045 245 0 246 0 21 -137z m-273
-740 c31 -215 56 -396 56 -402 0 -7 -101 -11 -319 -13 -176 -2 -318 -1 -317 2
2 3 117 196 257 429 215 360 254 420 261 400 4 -13 32 -200 62 -416z m-2844
-533 c-58 -4 -141 -7 -185 -7 l-80 1 95 6 c52 3 136 6 185 6 l90 1 -105 -7z
m-292 -17 c-10 -2 -18 -17 -21 -36 -4 -31 -4 -31 -5 6 -2 33 1 37 21 36 15 -1
17 -3 5 -6z m413 -108 c23 -130 85 -186 254 -229 11 -3 0 -3 -25 0 -91 10
-174 63 -210 134 -22 43 -40 129 -39 178 2 32 2 33 6 7 2 -16 8 -57 14 -90z
m-5741 -950 c-13 -14 -25 -23 -27 -21 -8 8 22 46 36 46 10 0 7 -8 -9 -25z
m573 0 c-17 -22 -33 -32 -33 -20 0 14 26 45 38 45 9 0 8 -7 -5 -25z m1222 -83
c94 -55 93 -214 -1 -273 -45 -28 -121 -29 -166 -2 -94 55 -107 185 -25 261 47
44 129 50 192 14z m1237 18 c20 -6 50 -25 67 -42 113 -116 2 -308 -154 -267
-155 41 -160 263 -7 309 37 11 52 11 94 0z m2753 -20 c19 -20 19 -20 0 -34
-18 -13 -22 -13 -37 1 -21 19 -52 13 -56 -10 -3 -12 17 -38 57 -75 50 -47 61
-63 61 -89 0 -81 -99 -116 -161 -57 l-29 28 22 12 c20 11 26 10 44 -7 23 -22
45 -24 62 -7 20 20 13 47 -20 75 -87 75 -103 106 -77 154 22 42 95 47 134 9z
m560 19 c173 -48 137 -309 -43 -312 -150 -2 -220 177 -109 281 41 39 89 48
152 31z m1785 1 c20 -5 51 -26 70 -45 30 -31 35 -43 38 -98 3 -52 0 -67 -20
-96 -33 -49 -81 -75 -139 -74 -112 2 -186 111 -145 217 20 52 42 73 93 92 46
16 58 17 103 4z m801 -1 c70 -24 109 -80 109 -157 0 -90 -69 -156 -161 -155
-167 2 -219 225 -69 301 50 25 72 27 121 11z m-9109 -24 c-4 -23 -9 -25 -53
-25 l-49 0 0 -35 0 -35 50 0 c43 0 50 -3 50 -19 0 -17 -8 -20 -47 -23 l-48 -3
-3 -72 c-3 -65 -5 -73 -22 -73 -19 0 -20 8 -20 155 l0 155 74 0 c73 0 73 0 68
-25z m248 15 c0 -6 -33 -10 -80 -10 l-80 0 0 -55 0 -55 75 0 c43 0 75 -4 75
-10 0 -6 -32 -10 -75 -10 l-75 0 0 -70 0 -70 74 0 c41 0 78 -4 81 -10 4 -6
-27 -10 -84 -10 l-91 0 0 155 0 155 90 0 c53 0 90 -4 90 -10z m248 -14 c63
-32 90 -136 54 -205 -29 -58 -61 -74 -157 -79 l-85 -5 0 158 0 158 78 -5 c45
-3 91 -12 110 -22z m322 14 c0 -6 -33 -10 -80 -10 l-80 0 0 -55 0 -55 75 0
c43 0 75 -4 75 -10 0 -6 -32 -10 -75 -10 l-75 0 0 -70 0 -70 75 0 c43 0 75 -4
75 -10 0 -6 -35 -10 -85 -10 l-85 0 0 155 0 155 90 0 c53 0 90 -4 90 -10z
m229 -14 c25 -23 28 -72 6 -103 -9 -13 -31 -24 -55 -28 l-41 -7 36 -46 c75
-99 77 -102 63 -102 -7 1 -38 34 -68 75 -70 95 -85 95 -84 -3 0 -44 -4 -72
-10 -72 -7 0 -11 53 -11 156 l0 156 72 -4 c52 -2 77 -8 92 -22z m308 -153 c34
-74 57 -133 50 -133 -7 0 -23 25 -36 55 l-23 55 -74 0 -74 0 -25 -55 c-13 -30
-29 -55 -35 -55 -14 0 -19 -13 65 164 62 131 71 145 79 124 6 -13 38 -83 73
-155z m223 167 c0 -5 -16 -10 -35 -10 l-35 0 0 -145 c0 -90 -4 -145 -10 -145
-6 0 -10 55 -10 145 l0 145 -35 0 c-19 0 -35 5 -35 10 0 6 33 10 80 10 47 0
80 -4 80 -10z m70 -145 c0 -97 -4 -155 -10 -155 -6 0 -10 58 -10 155 0 97 4
155 10 155 6 0 10 -58 10 -155z m589 22 c52 -59 99 -107 103 -107 5 0 8 54 6
120 -2 91 0 120 10 120 9 0 12 -38 12 -157 0 -86 -2 -154 -4 -152 -41 47 -167
193 -183 212 -13 15 -27 27 -32 27 -5 0 -8 -54 -7 -120 1 -74 -3 -120 -9 -120
-6 0 -10 58 -10 155 0 106 3 151 10 142 6 -7 52 -62 104 -120z m381 -22 l0
-155 -25 0 -25 0 0 155 0 155 25 0 25 0 0 -155z m135 35 c28 -66 54 -118 60
-117 5 2 32 56 60 120 27 64 56 117 63 117 10 0 10 -5 1 -22 -7 -12 -37 -81
-68 -153 l-57 -132 -66 154 c-36 84 -61 153 -55 153 7 0 35 -54 62 -120z m665
-35 c0 -97 -4 -155 -10 -155 -6 0 -10 58 -10 155 0 97 4 155 10 155 6 0 10
-58 10 -155z m249 131 c27 -24 28 -86 4 -108 -10 -9 -33 -19 -50 -23 -18 -3
-33 -9 -33 -12 0 -4 11 -21 25 -40 14 -18 37 -49 51 -68 18 -23 22 -35 13 -35
-8 0 -39 34 -68 75 -30 41 -61 75 -68 75 -10 0 -13 -20 -13 -75 0 -43 -4 -75
-10 -75 -6 0 -10 59 -10 156 l0 156 69 -4 c50 -2 75 -9 90 -22z m121 -131 c0
-97 -4 -155 -10 -155 -6 0 -10 58 -10 155 0 97 4 155 10 155 6 0 10 -58 10
-155z m260 145 c0 -6 -32 -10 -75 -10 l-75 0 0 -55 0 -55 75 0 c43 0 75 -4 75
-10 0 -6 -32 -10 -75 -10 l-75 0 0 -70 0 -70 75 0 c43 0 75 -4 75 -10 0 -6
-35 -10 -85 -10 l-85 0 0 155 0 155 85 0 c50 0 85 -4 85 -10z m184 -128 c49
-56 93 -102 98 -102 5 0 8 54 6 120 -2 75 1 120 7 120 6 0 10 -58 10 -155 0
-85 -3 -151 -6 -147 -56 70 -203 232 -210 232 -6 0 -9 -47 -7 -120 2 -75 -1
-120 -7 -120 -6 0 -10 59 -10 156 0 139 2 153 15 137 8 -11 55 -65 104 -121z
m336 -6 c46 -53 88 -96 92 -96 4 0 8 54 8 120 0 73 4 120 10 120 6 0 10 -58
10 -155 l0 -155 -106 120 c-58 66 -109 120 -112 120 -4 0 -6 -54 -4 -120 2
-76 -1 -120 -7 -120 -6 0 -11 59 -13 156 l-3 155 20 -24 c11 -14 58 -68 105
-121z m380 134 c0 -5 -35 -10 -77 -12 l-78 -3 -3 -52 -3 -53 80 0 c47 0 81 -4
81 -10 0 -6 -33 -10 -80 -10 l-81 0 3 -67 3 -68 78 -3 c108 -4 97 -22 -14 -22
l-91 0 4 155 3 155 88 0 c49 0 87 -4 87 -10z m339 0 c40 -11 79 -45 93 -80 15
-38 11 -115 -7 -149 -25 -49 -56 -63 -150 -69 l-85 -5 0 157 0 156 58 0 c31 0
72 -4 91 -10z m351 0 c0 -6 -32 -10 -75 -10 l-75 0 0 -55 0 -55 75 0 c43 0 75
-4 75 -10 0 -6 -32 -10 -75 -10 l-75 0 0 -70 0 -70 75 0 c43 0 75 -4 75 -10 0
-6 -35 -10 -85 -10 l-85 0 0 155 0 155 85 0 c50 0 85 -4 85 -10z m570 -3 c30
-15 45 -54 36 -91 -8 -34 -57 -56 -121 -56 l-45 0 0 -75 c0 -43 -4 -75 -10
-75 -6 0 -10 58 -10 155 l0 155 63 0 c34 0 73 -6 87 -13z m654 2 c27 -13 49
-60 39 -87 -11 -31 -35 -52 -69 -58 -19 -3 -34 -9 -34 -12 0 -3 19 -31 43 -61
54 -70 61 -81 48 -81 -6 0 -36 34 -67 75 -31 41 -63 75 -70 75 -11 0 -14 -18
-14 -75 0 -43 -4 -75 -10 -75 -6 0 -10 58 -10 155 l0 155 60 0 c32 0 70 -5 84
-11z m256 1 c0 -5 -16 -10 -35 -10 l-35 0 0 -145 c0 -90 -4 -145 -10 -145 -6
0 -10 55 -10 145 l0 145 -35 0 c-19 0 -35 5 -35 10 0 6 33 10 80 10 47 0 80
-4 80 -10z m372 -95 c21 -55 47 -124 58 -152 l20 -53 -25 0 c-19 0 -28 8 -39
35 l-15 35 -68 0 -69 0 -13 -35 c-10 -28 -18 -35 -38 -35 -16 0 -23 5 -20 13
112 302 110 298 141 295 27 -3 32 -11 68 -103z m158 -16 l0 -121 30 -30 c26
-25 36 -29 63 -24 58 11 67 33 67 172 0 76 4 124 10 124 6 0 10 -49 10 -128 0
-143 -7 -163 -64 -182 -39 -12 -89 3 -116 35 -19 23 -29 275 -11 275 7 0 11
-40 11 -121z m410 111 c0 -5 -16 -10 -35 -10 l-35 0 0 -145 c0 -90 -4 -145
-10 -145 -6 0 -10 55 -10 145 l0 145 -40 0 c-22 0 -40 5 -40 10 0 6 35 10 85
10 50 0 85 -4 85 -10z m1353 -1 c12 -7 25 -17 29 -23 13 -19 9 -69 -7 -86 -15
-16 -13 -20 15 -48 36 -37 39 -71 6 -108 -20 -24 -32 -28 -90 -32 l-66 -4 0
156 0 156 46 0 c25 0 55 -5 67 -11z m157 -144 c0 -101 -4 -155 -10 -155 -7 0
-10 54 -9 155 0 85 5 155 10 155 5 0 9 -69 9 -155z m110 10 l0 -145 60 0 c33
0 60 -4 60 -10 0 -6 -30 -10 -70 -10 l-70 0 0 155 c0 97 4 155 10 155 6 0 10
-55 10 -145z m360 135 c0 -6 -33 -10 -79 -10 -45 0 -81 -4 -83 -10 -2 -6 -2
-31 0 -55 l4 -45 74 0 c43 0 74 -4 74 -10 0 -6 -32 -10 -75 -10 l-75 0 0 -70
0 -70 75 0 c43 0 75 -4 75 -10 0 -6 -35 -10 -85 -10 l-85 0 0 155 0 155 90 0
c53 0 90 -4 90 -10z m-1377 -249 c4 -1 35 55 70 125 l62 125 20 -148 c12 -81
20 -150 18 -152 -9 -12 -16 18 -30 116 -14 104 -18 121 -27 112 -2 -2 -28 -55
-58 -116 l-54 -113 -54 113 c-30 61 -56 114 -57 116 -8 12 -14 -15 -28 -114
-9 -60 -18 -111 -20 -114 -13 -13 -12 16 5 144 11 77 20 145 20 150 1 6 29
-47 63 -117 34 -70 65 -127 70 -127z"/>
<path d="M1903 3109 c-28 -5 -81 -20 -116 -33 -36 -13 -67 -23 -69 -20 -13 12
-243 35 -313 31 -122 -8 -181 -30 -237 -87 -26 -27 -60 -56 -77 -64 -17 -9
-38 -34 -51 -61 -24 -50 -44 -178 -37 -240 l5 -40 -20 48 c-11 26 -24 47 -28
47 -12 0 -66 -130 -83 -200 -22 -87 -31 -181 -23 -225 6 -31 9 -34 26 -25 10
5 36 9 57 9 l38 -1 -38 -8 c-45 -8 -63 -24 -72 -62 -7 -28 -6 -28 41 -29 47
-1 47 -2 14 -8 -57 -12 -77 -28 -94 -77 l-16 -46 43 6 42 6 -44 -23 c-39 -19
-46 -28 -58 -71 -16 -54 -13 -62 15 -47 12 6 29 11 39 11 10 0 -2 -11 -28 -26
-45 -25 -47 -29 -54 -81 -4 -30 -4 -57 -1 -60 3 -4 23 -1 45 5 21 7 49 12 62
11 14 -1 6 -5 -18 -9 -23 -5 -53 -16 -67 -26 -23 -14 -26 -23 -26 -75 0 -33 2
-59 4 -59 2 0 20 7 39 15 20 8 49 15 64 14 24 -1 23 -2 -10 -10 -67 -16 -97
-37 -97 -67 0 -28 15 -101 22 -107 2 -3 26 2 53 10 69 21 79 17 17 -6 -29 -12
-56 -27 -58 -33 -5 -12 27 -107 45 -135 7 -11 18 -7 58 22 53 40 126 112 168
170 22 30 26 44 22 73 -8 47 -12 50 -41 30 -24 -15 -24 -13 11 60 19 41 33 77
30 80 -3 4 -20 -4 -37 -16 l-32 -23 36 50 c40 55 66 112 66 142 0 16 -4 18
-34 11 -18 -4 -40 -11 -47 -15 -8 -4 7 12 33 35 60 52 63 71 11 63 l-38 -6 32
34 c38 41 94 145 119 219 l18 55 9 -60 c8 -58 5 -132 -9 -207 l-6 -37 56 6
c43 4 66 1 96 -12 22 -10 43 -15 47 -11 4 3 -11 25 -33 49 -21 23 -27 31 -12
18 16 -14 31 -22 34 -18 4 4 -5 38 -18 78 l-26 71 28 -34 c15 -18 31 -30 34
-27 7 6 -40 126 -57 149 -7 8 5 4 26 -9 l37 -23 -5 89 c-3 48 -8 100 -10 115
l-4 27 33 -16 c19 -9 32 -21 30 -27 -3 -7 3 -21 13 -31 10 -11 18 -29 18 -40
0 -13 12 -25 32 -35 39 -18 40 -23 7 -38 -61 -28 17 -44 84 -17 l37 15 -44
-40 c-24 -22 -42 -43 -39 -45 7 -7 81 20 115 42 l28 18 -21 -35 c-11 -19 -33
-42 -50 -50 -16 -8 -31 -16 -34 -18 -11 -7 28 -22 61 -22 74 0 109 80 109 252
0 59 -3 108 -7 108 -4 0 -16 -9 -28 -20 l-22 -20 9 61 c4 34 6 65 2 68 -3 3
-14 -5 -25 -19 l-19 -25 6 51 c8 62 -15 121 -69 181 l-36 40 54 -5 c50 -4 56
-2 63 18 l8 23 22 -28 c55 -70 77 -261 68 -595 -6 -227 1 -364 24 -441 19 -67
51 -102 132 -143 89 -45 112 -43 106 8 -3 30 -2 32 14 22 28 -17 40 9 34 74
l-4 55 13 -37 c19 -53 45 -88 64 -88 22 0 41 69 42 153 l0 62 20 -70 c24 -85
32 -94 53 -63 14 22 22 54 42 173 7 40 7 40 16 13 5 -16 14 -28 19 -28 22 0
91 199 109 315 l8 50 1 -60 c4 -130 49 -174 83 -82 21 55 40 204 32 250 -5 29
-4 28 15 -12 18 -36 24 -41 36 -31 17 14 24 33 41 124 l14 71 -4 -97 c-3 -54
-1 -98 4 -98 12 0 39 74 56 154 18 84 12 149 -23 256 -35 108 -77 175 -158
256 -83 82 -203 149 -295 163 -69 11 -327 11 -397 0z m383 -95 c106 -29 199
-113 283 -254 35 -60 18 -48 -33 24 -88 123 -194 197 -340 237 l-71 19 55 -6
c30 -3 78 -12 106 -20z m-747 -134 c0 -14 -4 -34 -8 -45 -6 -15 -10 -8 -13 30
-2 28 -8 59 -12 70 -6 16 -4 15 13 -5 11 -14 20 -36 20 -50z m313 -77 c24 -27
38 -90 38 -172 0 -41 -2 -72 -4 -70 -3 2 -12 38 -20 79 -9 41 -27 97 -41 123
-14 27 -25 51 -25 53 0 12 39 2 52 -13z m-474 -91 c-25 -27 -49 -59 -53 -71
-4 -12 -9 -21 -11 -18 -10 10 30 99 53 117 50 39 56 21 11 -28z m196 -41 c4
-5 -3 -7 -14 -4 -23 6 -26 13 -6 13 8 0 17 -4 20 -9z m-146 -48 c-8 -10 -20
-27 -26 -38 -6 -11 -12 -15 -12 -9 0 12 38 64 47 64 3 0 -1 -8 -9 -17z m231
-7 c8 -9 8 -21 2 -37 -8 -20 -10 -21 -10 -5 -1 11 -8 28 -18 38 -14 16 -14 18
-1 18 9 0 21 -6 27 -14z m-352 -28 c-3 -8 -6 -5 -6 6 -1 11 2 17 5 13 3 -3 4
-12 1 -19z m229 6 c18 -14 18 -14 -6 -3 -31 14 -36 19 -24 19 6 0 19 -7 30
-16z m-54 -15 c-28 -11 -24 -34 6 -33 12 0 19 -3 16 -8 -10 -16 -53 -8 -65 13
-13 26 1 39 41 38 l25 0 -23 -10z m59 -16 c12 -16 12 -17 -2 -6 -9 7 -19 10
-22 6 -4 -3 -7 -1 -7 5 0 17 16 15 31 -5z m-112 -51 c-5 -2 -17 -1 -25 2 -13
5 -14 9 -4 21 11 13 14 13 26 -2 7 -10 9 -19 3 -21z m-189 -111 c6 -36 13 -77
15 -91 3 -20 2 -19 -10 8 -20 42 -29 40 -44 -8 -6 -22 -23 -52 -36 -67 l-24
-28 26 65 c20 50 27 89 31 165 5 99 5 100 18 61 8 -21 19 -68 24 -105z m295
120 c-3 -6 -11 -11 -17 -11 -6 0 -6 6 2 15 14 17 26 13 15 -4z m-2 -48 c-7 -2
-19 -2 -25 0 -7 3 -2 5 12 5 14 0 19 -2 13 -5z m67 -38 c-7 -8 -27 -15 -44
-14 l-31 1 33 8 c18 4 36 10 39 14 13 12 15 5 3 -9z m-93 -71 c-3 -3 -12 -4
-19 -1 -8 3 -5 6 6 6 11 1 17 -2 13 -5z m417 -424 c19 -71 12 -78 -9 -8 -9 29
-18 94 -20 143 l-4 90 9 -85 c5 -47 16 -110 24 -140z m173 -152 c-3 -8 -6 -5
-6 6 -1 11 2 17 5 13 3 -3 4 -12 1 -19z m10 -40 c-3 -8 -6 -5 -6 6 -1 11 2 17
5 13 3 -3 4 -12 1 -19z"/>
<path d="M1264 1833 c-33 -194 -58 -266 -128 -372 -117 -175 -307 -299 -559
-362 -90 -22 -122 -47 -44 -34 23 3 67 10 97 15 126 19 289 84 400 160 138 95
239 258 294 476 28 109 19 154 -31 154 -18 0 -23 -7 -29 -37z"/>
<path d="M1694 1375 c-10 -54 21 -99 70 -103 46 -4 79 22 97 75 15 46 6 51
-32 19 -43 -36 -79 -32 -98 12 -19 41 -28 41 -37 -3z"/>
<path d="M1131 1229 c-28 -33 -64 -60 -167 -126 -18 -11 -14 -17 46 -75 112
-108 276 -178 418 -178 168 0 278 42 377 145 55 57 103 130 93 140 -2 2 -40 6
-85 9 -68 3 -81 1 -76 -10 3 -8 18 -21 34 -30 16 -8 29 -17 29 -20 0 -2 -13 2
-30 11 -31 16 -61 19 -97 9 -28 -8 -30 -30 -4 -39 11 -3 27 -18 36 -33 l18
-27 -29 26 c-44 40 -70 51 -109 43 -38 -7 -43 -15 -19 -34 8 -8 20 -23 26 -34
6 -13 -5 -6 -29 17 -45 43 -90 52 -79 15 17 -55 16 -60 -3 -20 -15 32 -26 42
-44 42 -22 0 -24 -3 -21 -57 l3 -58 -9 59 c-9 53 -28 85 -52 86 -5 0 -9 -28
-9 -62 l-2 -63 -8 69 c-7 62 -18 85 -41 86 -5 0 -8 -15 -9 -32 0 -18 -5 -42
-10 -53 -6 -14 -7 -6 -3 26 6 46 -15 119 -34 119 -6 0 -10 -16 -10 -36 0 -19
-3 -38 -6 -41 -3 -4 -6 19 -6 50 0 55 -24 118 -45 116 -5 0 -25 -18 -44 -40z"/>
<path d="M3347 2597 c-49 -232 -144 -690 -213 -1017 -68 -327 -127 -607 -130
-622 l-6 -28 211 0 c116 0 211 1 211 3 0 1 42 202 94 447 l93 445 509 3 510 2
28 143 c15 78 30 154 33 170 l6 27 -508 0 -507 0 5 23 c3 12 27 127 54 254
l48 233 519 2 520 3 32 155 c18 85 33 161 34 168 0 9 -152 12 -727 12 l-728 0
-88 -423z"/>
<path d="M5210 3013 c0 -5 -54 -267 -121 -583 -254 -1214 -300 -1436 -306
-1468 l-6 -32 212 0 c116 0 211 2 211 4 0 5 113 551 295 1420 74 357 135 653
135 658 0 4 -94 8 -210 8 -115 0 -210 -3 -210 -7z"/>
<path d="M8506 2156 c-130 -217 -236 -397 -236 -400 0 -3 135 -6 300 -6 165 0
300 3 300 6 0 3 -25 177 -55 386 -30 209 -55 386 -55 394 0 8 -4 14 -9 14 -4
0 -115 -177 -245 -394z"/>
<path d="M1999 449 c-48 -29 -69 -67 -69 -126 0 -39 6 -58 28 -86 73 -95 229
-54 249 67 18 114 -110 204 -208 145z"/>
<path d="M3280 450 c-100 -53 -97 -201 5 -250 51 -25 69 -25 122 -1 102 47
104 199 3 252 -44 24 -85 23 -130 -1z"/>
<path d="M6594 451 c-58 -35 -76 -69 -72 -132 3 -46 10 -63 34 -90 35 -39 43
-43 105 -43 146 1 190 199 58 266 -44 23 -86 23 -125 -1z"/>
<path d="M8380 451 c-40 -21 -80 -83 -80 -124 0 -40 27 -94 59 -116 63 -44
138 -34 191 25 25 29 30 43 30 85 0 62 -21 100 -70 128 -46 26 -85 27 -130 2z"/>
<path d="M9181 452 c-47 -23 -72 -61 -78 -114 -16 -137 156 -212 242 -105 14
18 29 36 33 42 5 5 5 33 1 63 -8 60 -34 96 -86 118 -43 19 -71 18 -112 -4z"/>
<path d="M510 325 l0 -135 55 0 c31 0 71 6 90 14 67 29 94 116 57 185 -25 47
-74 71 -144 71 l-58 0 0 -135z"/>
<path d="M1088 453 c-2 -5 -3 -30 -3 -58 l1 -50 48 -3 c61 -4 96 17 96 57 0
42 -28 61 -88 61 -28 0 -52 -3 -54 -7z"/>
<path d="M1420 363 c-14 -31 -26 -60 -28 -65 -2 -4 24 -8 57 -8 34 0 61 4 61
10 0 17 -49 120 -57 120 -4 0 -19 -26 -33 -57z"/>
<path d="M3710 400 l0 -60 48 0 c59 0 92 21 92 59 0 42 -28 61 -88 61 l-52 0
0 -60z"/>
<path d="M5340 325 l0 -135 55 0 c106 0 150 38 156 133 5 84 -57 137 -161 137
l-50 0 0 -135z"/>
<path d="M6260 400 l0 -60 55 0 c62 0 95 22 95 63 0 39 -30 57 -93 57 l-57 0
0 -60z"/>
<path d="M6920 400 l0 -61 56 3 c48 3 60 7 77 29 16 23 17 30 7 50 -18 34 -29
39 -87 39 l-53 0 0 -60z"/>
<path d="M7577 351 c-24 -69 -23 -71 29 -71 43 0 46 1 40 23 -9 39 -36 97 -44
97 -4 0 -15 -22 -25 -49z"/>
<path d="M9500 405 l0 -55 39 0 c47 0 71 20 71 60 0 35 -23 50 -74 50 l-36 0
0 -55z"/>
<path d="M9500 260 l0 -70 44 0 c29 0 52 7 70 21 61 48 10 119 -85 119 l-29 0
0 -70z"/>
</g>
</svg>
